<svg width="400" height="400" viewBox="0 0 400 400" fill="none" xmlns="http://www.w3.org/2000/svg">
<rect width="400" height="400" fill="#63D5F9"/>
<path d="M203.055 233.172C227.174 202.959 222.234 158.913 192.02 134.794C161.807 110.675 117.761 115.615 93.642 145.829C69.5229 176.042 74.4634 220.088 104.677 244.207C134.89 268.326 178.936 263.386 203.055 233.172Z" fill="#4B7790" fill-opacity="0.2"/>
<path d="M234.249 194.096C258.368 163.882 253.428 119.837 223.214 95.7179C193.001 71.5988 148.955 76.5393 124.836 106.753C100.717 136.966 105.657 181.012 135.871 205.131C166.085 229.25 210.13 224.309 234.249 194.096Z" fill="#4B7790" fill-opacity="0.6"/>
<path d="M265.443 155.02C289.562 124.806 284.622 80.7611 254.408 56.642C224.194 32.5229 180.149 37.4633 156.03 67.6769C131.911 97.8904 136.851 141.936 167.065 166.055C197.278 190.174 241.324 185.234 265.443 155.02Z" fill="#4B7790"/>
<path d="M68.4298 312.711C68.4298 314.571 68.5798 315.921 68.8798 316.761C69.1798 317.601 69.7498 318.171 70.5898 318.471C71.4898 318.771 72.8998 318.921 74.8198 318.921C74.9998 318.921 75.0898 319.101 75.0898 319.461C75.0898 319.821 74.9998 320.001 74.8198 320.001C72.8398 320.001 71.2798 319.971 70.1398 319.911L63.2998 319.821L56.6398 319.911C55.4398 319.971 53.8198 320.001 51.7798 320.001C51.6598 320.001 51.5998 319.821 51.5998 319.461C51.5998 319.101 51.6598 318.921 51.7798 318.921C53.6998 318.921 55.1098 318.771 56.0098 318.471C56.9098 318.171 57.5098 317.601 57.8098 316.761C58.1698 315.861 58.3498 314.511 58.3498 312.711L58.3498 271.041C58.3498 269.241 58.1698 267.921 57.8098 267.081C57.5098 266.241 56.9098 265.671 56.0098 265.371C55.1098 265.011 53.6998 264.831 51.7798 264.831C51.6598 264.831 51.5998 264.651 51.5998 264.291C51.5998 263.931 51.6598 263.751 51.7798 263.751L56.6398 263.841C59.3998 263.961 61.6198 264.021 63.2998 264.021C65.1598 264.021 67.4698 263.961 70.2298 263.841L74.8198 263.751C74.9998 263.751 75.0898 263.931 75.0898 264.291C75.0898 264.651 74.9998 264.831 74.8198 264.831C72.9598 264.831 71.5798 265.011 70.6798 265.371C69.7798 265.731 69.1798 266.361 68.8798 267.261C68.5798 268.101 68.4298 269.421 68.4298 271.221L68.4298 312.711ZM147.071 318.921C147.311 318.921 147.431 319.101 147.431 319.461C147.431 319.821 147.311 320.001 147.071 320.001C145.511 320.001 144.281 319.971 143.381 319.911L137.981 319.821L132.761 319.911C131.801 319.971 130.541 320.001 128.981 320.001C128.801 320.001 128.711 319.821 128.711 319.461C128.711 319.101 128.801 318.921 128.981 318.921C130.841 318.921 132.101 318.501 132.761 317.661C133.481 316.761 133.841 315.111 133.841 312.711L133.841 299.751C133.841 296.511 133.271 294.111 132.131 292.551C131.051 290.991 129.371 290.211 127.091 290.211C125.531 290.211 124.001 290.541 122.501 291.201C121.001 291.861 119.711 292.761 118.631 293.901L118.631 294.441L118.631 312.711C118.631 315.111 118.961 316.761 119.621 317.661C120.341 318.501 121.631 318.921 123.491 318.921C123.731 318.921 123.851 319.101 123.851 319.461C123.851 319.821 123.731 320.001 123.491 320.001C121.931 320.001 120.701 319.971 119.801 319.911L114.401 319.821L109.181 319.911C108.221 319.971 106.961 320.001 105.401 320.001C105.221 320.001 105.131 319.821 105.131 319.461C105.131 319.101 105.221 318.921 105.401 318.921C107.261 318.921 108.521 318.501 109.181 317.661C109.901 316.761 110.261 315.111 110.261 312.711L110.261 299.751C110.261 296.511 109.691 294.111 108.551 292.551C107.471 290.991 105.791 290.211 103.511 290.211C102.071 290.211 100.631 290.511 99.1915 291.111C97.8115 291.651 96.5815 292.431 95.5015 293.451L95.5015 312.711C95.5015 315.111 95.8315 316.761 96.4915 317.661C97.2115 318.501 98.5015 318.921 100.361 318.921C100.541 318.921 100.631 319.101 100.631 319.461C100.631 319.821 100.541 320.001 100.361 320.001C98.8015 320.001 97.5715 319.971 96.6715 319.911L91.2715 319.821L85.9615 319.911C85.0615 319.971 83.8315 320.001 82.2715 320.001C82.0915 320.001 82.0015 319.821 82.0015 319.461C82.0015 319.101 82.0915 318.921 82.2715 318.921C84.1315 318.921 85.3915 318.501 86.0515 317.661C86.7115 316.761 87.0415 315.111 87.0415 312.711L87.0415 295.791C87.0415 293.931 86.8015 292.581 86.3215 291.741C85.9015 290.841 85.2115 290.391 84.2515 290.391C83.2315 290.391 81.7915 290.811 79.9315 291.651L79.7515 291.651C79.5715 291.651 79.4215 291.501 79.3015 291.201C79.2415 290.901 79.2715 290.721 79.3915 290.661L91.9015 284.541C92.2615 284.421 92.4715 284.361 92.5315 284.361C93.1915 284.361 93.8215 285.021 94.4215 286.341C95.0215 287.601 95.3815 289.311 95.5015 291.471C99.5815 286.611 103.961 284.181 108.641 284.181C111.461 284.181 113.711 284.871 115.391 286.251C117.071 287.631 118.091 289.611 118.451 292.191C122.591 286.851 127.181 284.181 132.221 284.181C135.461 284.181 137.921 285.111 139.601 286.971C141.341 288.831 142.211 291.651 142.211 295.431L142.211 312.711C142.211 315.111 142.541 316.761 143.201 317.661C143.921 318.501 145.211 318.921 147.071 318.921ZM172.212 321.171C169.272 321.171 166.692 320.841 164.472 320.181L164.472 337.461C164.472 339.261 164.652 340.581 165.012 341.421C165.432 342.261 166.182 342.831 167.262 343.131C168.402 343.491 170.142 343.671 172.482 343.671C172.662 343.671 172.752 343.851 172.752 344.211C172.752 344.571 172.662 344.751 172.482 344.751C170.262 344.751 168.522 344.721 167.262 344.661L160.152 344.571L154.842 344.661C153.942 344.721 152.682 344.751 151.062 344.751C150.882 344.751 150.792 344.571 150.792 344.211C150.792 343.851 150.882 343.671 151.062 343.671C152.502 343.671 153.552 343.491 154.212 343.131C154.932 342.831 155.412 342.261 155.652 341.421C155.952 340.581 156.102 339.261 156.102 337.461L156.102 295.791C156.102 293.871 155.892 292.491 155.472 291.651C155.052 290.811 154.302 290.391 153.222 290.391C152.262 290.391 150.882 290.811 149.082 291.651L148.902 291.651C148.722 291.651 148.572 291.501 148.452 291.201C148.272 290.901 148.242 290.721 148.362 290.661L161.142 284.451C161.262 284.391 161.412 284.361 161.592 284.361C162.192 284.361 162.732 284.871 163.212 285.891C163.752 286.911 164.112 288.291 164.292 290.031C168.672 286.071 173.172 284.091 177.792 284.091C180.312 284.091 182.652 284.751 184.812 286.071C187.032 287.391 188.802 289.311 190.122 291.831C191.442 294.351 192.102 297.291 192.102 300.651C192.102 305.451 191.112 309.411 189.132 312.531C187.152 315.591 184.632 317.811 181.572 319.191C178.572 320.511 175.452 321.171 172.212 321.171ZM171.852 289.131C169.152 289.131 166.692 290.091 164.472 292.011L164.472 292.731L164.472 314.421C165.792 315.921 167.172 317.061 168.612 317.841C170.052 318.561 171.822 318.921 173.922 318.921C179.982 318.921 183.012 313.761 183.012 303.441C183.012 298.881 181.932 295.371 179.772 292.911C177.672 290.391 175.032 289.131 171.852 289.131ZM229.785 314.061C229.905 314.061 230.025 314.181 230.145 314.421C230.325 314.661 230.355 314.841 230.235 314.961C228.015 317.121 225.765 318.681 223.485 319.641C221.205 320.601 218.715 321.081 216.015 321.081C212.235 321.081 208.965 320.301 206.205 318.741C203.445 317.121 201.345 314.991 199.905 312.351C198.465 309.651 197.745 306.741 197.745 303.621C197.745 300.141 198.615 296.931 200.355 293.991C202.095 291.051 204.495 288.741 207.555 287.061C210.675 285.321 214.185 284.451 218.085 284.451C221.805 284.451 224.685 285.291 226.725 286.971C228.765 288.651 229.785 291.261 229.785 294.801C229.785 296.661 229.455 297.591 228.795 297.591L206.925 297.681C206.865 298.101 206.835 298.791 206.835 299.751C206.835 305.031 208.035 309.171 210.435 312.171C212.895 315.171 216.405 316.671 220.965 316.671C222.585 316.671 223.965 316.491 225.105 316.131C226.245 315.771 227.745 315.111 229.605 314.151L229.785 314.061ZM214.665 286.251C212.685 286.251 211.035 287.121 209.715 288.861C208.395 290.541 207.525 292.881 207.105 295.881L220.155 295.701C220.095 292.641 219.645 290.301 218.805 288.681C217.965 287.061 216.585 286.251 214.665 286.251ZM261.642 313.701C261.882 313.701 262.062 313.821 262.182 314.061C262.362 314.301 262.362 314.481 262.182 314.601C259.962 316.821 257.802 318.471 255.702 319.551C253.602 320.571 251.382 321.081 249.042 321.081C246.402 321.081 244.152 320.451 242.292 319.191C240.432 317.931 239.502 315.801 239.502 312.801L239.502 292.821C239.502 290.961 239.172 289.671 238.512 288.951C237.852 288.231 236.652 287.871 234.912 287.871C234.852 287.871 234.762 287.781 234.642 287.601C234.582 287.421 234.552 287.241 234.552 287.061C234.552 286.821 234.582 286.641 234.642 286.521C234.702 286.341 234.792 286.251 234.912 286.251C237.972 286.131 240.432 285.471 242.292 284.271C244.212 283.071 245.682 281.241 246.702 278.781C246.822 278.541 247.062 278.421 247.422 278.421C247.842 278.421 248.052 278.541 248.052 278.781L248.052 285.981C251.532 285.921 255.432 285.651 259.752 285.171C259.872 285.171 259.992 285.411 260.112 285.891C260.292 286.311 260.382 286.791 260.382 287.331C260.382 287.931 260.262 288.531 260.022 289.131C259.842 289.671 259.632 289.911 259.392 289.851C255.492 289.011 251.712 288.561 248.052 288.501L248.052 309.831C248.052 312.111 248.622 313.791 249.762 314.871C250.962 315.951 252.522 316.491 254.442 316.491C256.842 316.491 259.182 315.591 261.462 313.791L261.642 313.701ZM307.627 314.151C307.807 314.151 307.957 314.301 308.077 314.601C308.257 314.901 308.257 315.081 308.077 315.141L295.657 321.171C295.537 321.231 295.387 321.261 295.207 321.261C294.607 321.261 294.067 320.631 293.587 319.371C293.167 318.051 292.927 316.281 292.867 314.061C288.907 318.741 284.617 321.081 279.997 321.081C276.697 321.081 274.087 320.061 272.167 318.021C270.307 315.921 269.377 313.191 269.377 309.831L269.377 296.601C269.377 292.701 268.447 290.751 266.587 290.751C265.927 290.751 265.177 290.961 264.337 291.381L264.247 291.381C264.007 291.381 263.827 291.231 263.707 290.931C263.587 290.571 263.617 290.361 263.797 290.301L275.857 284.541L276.307 284.451C276.607 284.451 276.907 284.601 277.207 284.901C277.567 285.141 277.747 285.381 277.747 285.621L277.747 305.511C277.747 311.991 280.237 315.231 285.217 315.231C286.537 315.231 287.857 314.961 289.177 314.421C290.557 313.821 291.787 313.011 292.867 311.991L292.867 296.601C292.867 292.701 291.937 290.751 290.077 290.751C289.417 290.751 288.637 290.961 287.737 291.381L287.647 291.381C287.467 291.381 287.317 291.231 287.197 290.931C287.077 290.571 287.107 290.361 287.287 290.301L299.347 284.541C299.467 284.481 299.617 284.451 299.797 284.451C300.097 284.451 300.397 284.601 300.697 284.901C301.057 285.141 301.237 285.381 301.237 285.621L301.237 309.561C301.237 311.601 301.417 313.041 301.777 313.881C302.197 314.721 302.857 315.141 303.757 315.141C304.597 315.141 305.827 314.811 307.447 314.151L307.627 314.151ZM318.776 289.581C318.776 291.321 319.376 292.821 320.576 294.081C321.836 295.341 323.636 296.661 325.976 298.041C328.256 299.361 329.936 300.411 331.016 301.191C332.156 301.911 333.176 302.961 334.076 304.341C334.976 305.661 335.426 307.281 335.426 309.201C335.426 311.241 334.916 313.161 333.896 314.961C332.876 316.761 331.346 318.231 329.306 319.371C327.266 320.451 324.836 320.991 322.016 320.991C318.716 320.991 315.596 320.181 312.656 318.561C312.296 318.201 312.116 317.841 312.116 317.481L311.936 308.571C311.936 308.391 312.086 308.301 312.386 308.301C312.746 308.241 312.956 308.271 313.016 308.391C313.976 311.391 315.566 313.941 317.786 316.041C320.006 318.141 322.256 319.191 324.536 319.191C325.796 319.191 326.786 318.801 327.506 318.021C328.286 317.241 328.676 316.101 328.676 314.601C328.676 312.381 328.046 310.641 326.786 309.381C325.526 308.061 323.666 306.711 321.206 305.331C319.106 304.191 317.516 303.261 316.436 302.541C315.356 301.821 314.396 300.801 313.556 299.481C312.716 298.161 312.296 296.541 312.296 294.621C312.296 291.081 313.556 288.501 316.076 286.881C318.596 285.201 321.686 284.361 325.346 284.361C326.726 284.361 327.956 284.451 329.036 284.631C330.176 284.811 331.436 285.171 332.816 285.711C333.356 285.891 333.626 286.221 333.626 286.701C333.626 288.201 333.596 289.371 333.536 290.211L333.446 294.711C333.446 294.891 333.266 294.981 332.906 294.981C332.546 294.981 332.366 294.891 332.366 294.711C332.366 293.571 331.886 292.341 330.926 291.021C329.966 289.641 328.706 288.471 327.146 287.511C325.646 286.551 324.086 286.071 322.466 286.071C320.006 286.071 318.776 287.241 318.776 289.581ZM347.928 320.991C346.248 320.991 344.898 320.511 343.878 319.551C342.918 318.531 342.438 317.181 342.438 315.501C342.438 313.941 342.918 312.681 343.878 311.721C344.898 310.761 346.248 310.281 347.928 310.281C349.608 310.281 350.898 310.761 351.798 311.721C352.758 312.621 353.238 313.881 353.238 315.501C353.238 317.241 352.758 318.591 351.798 319.551C350.898 320.511 349.608 320.991 347.928 320.991Z" fill="white"/>
</svg>
