<svg width="311" height="333" viewBox="0 0 311 333" fill="none" xmlns="http://www.w3.org/2000/svg">
<path d="M155.055 221.172C179.174 190.959 174.234 146.913 144.02 122.794C113.807 98.675 69.7614 103.615 45.6423 133.829C21.5231 164.042 26.4636 208.088 56.6771 232.207C86.8907 256.326 130.936 251.386 155.055 221.172Z" fill="#4B7790" fill-opacity="0.2"/>
<path d="M186.249 182.096C210.369 151.882 205.428 107.837 175.215 83.7179C145.001 59.5988 100.956 64.5393 76.8366 94.7528C52.7175 124.966 57.6579 169.012 87.8715 193.131C118.085 217.25 162.13 212.309 186.249 182.096Z" fill="#4B7790" fill-opacity="0.6"/>
<path d="M217.443 143.02C241.562 112.806 236.622 68.7611 206.408 44.642C176.194 20.5229 132.149 25.4633 108.03 55.6769C83.9108 85.8904 88.8513 129.936 119.065 154.055C149.278 178.174 193.324 173.234 217.443 143.02Z" fill="#4B7790"/>
<path d="M20.43 300.711C20.43 302.571 20.58 303.921 20.88 304.761C21.18 305.601 21.75 306.171 22.59 306.471C23.49 306.771 24.9 306.921 26.82 306.921C27 306.921 27.09 307.101 27.09 307.461C27.09 307.821 27 308.001 26.82 308.001C24.84 308.001 23.28 307.971 22.14 307.911L15.3 307.821L8.64 307.911C7.44 307.971 5.82 308.001 3.78 308.001C3.66 308.001 3.6 307.821 3.6 307.461C3.6 307.101 3.66 306.921 3.78 306.921C5.7 306.921 7.11 306.771 8.01 306.471C8.91 306.171 9.51 305.601 9.81 304.761C10.17 303.861 10.35 302.511 10.35 300.711L10.35 259.041C10.35 257.241 10.17 255.921 9.81 255.081C9.51 254.241 8.91 253.671 8.01 253.371C7.11 253.011 5.7 252.831 3.78 252.831C3.66 252.831 3.6 252.651 3.6 252.291C3.6 251.931 3.66 251.751 3.78 251.751L8.64 251.841C11.4 251.961 13.62 252.021 15.3 252.021C17.16 252.021 19.47 251.961 22.23 251.841L26.82 251.751C27 251.751 27.09 251.931 27.09 252.291C27.09 252.651 27 252.831 26.82 252.831C24.96 252.831 23.58 253.011 22.68 253.371C21.78 253.731 21.18 254.361 20.88 255.261C20.58 256.101 20.43 257.421 20.43 259.221L20.43 300.711ZM99.0717 306.921C99.3117 306.921 99.4317 307.101 99.4317 307.461C99.4317 307.821 99.3117 308.001 99.0717 308.001C97.5117 308.001 96.2817 307.971 95.3817 307.911L89.9817 307.821L84.7617 307.911C83.8017 307.971 82.5417 308.001 80.9817 308.001C80.8017 308.001 80.7117 307.821 80.7117 307.461C80.7117 307.101 80.8017 306.921 80.9817 306.921C82.8417 306.921 84.1017 306.501 84.7617 305.661C85.4817 304.761 85.8417 303.111 85.8417 300.711L85.8417 287.751C85.8417 284.511 85.2717 282.111 84.1317 280.551C83.0517 278.991 81.3717 278.211 79.0917 278.211C77.5317 278.211 76.0017 278.541 74.5017 279.201C73.0017 279.861 71.7117 280.761 70.6317 281.901L70.6317 282.441L70.6317 300.711C70.6317 303.111 70.9617 304.761 71.6217 305.661C72.3417 306.501 73.6317 306.921 75.4917 306.921C75.7317 306.921 75.8517 307.101 75.8517 307.461C75.8517 307.821 75.7317 308.001 75.4917 308.001C73.9317 308.001 72.7017 307.971 71.8017 307.911L66.4017 307.821L61.1817 307.911C60.2217 307.971 58.9617 308.001 57.4017 308.001C57.2217 308.001 57.1317 307.821 57.1317 307.461C57.1317 307.101 57.2217 306.921 57.4017 306.921C59.2617 306.921 60.5217 306.501 61.1817 305.661C61.9017 304.761 62.2617 303.111 62.2617 300.711L62.2617 287.751C62.2617 284.511 61.6917 282.111 60.5517 280.551C59.4717 278.991 57.7917 278.211 55.5117 278.211C54.0717 278.211 52.6317 278.511 51.1917 279.111C49.8117 279.651 48.5817 280.431 47.5017 281.451L47.5017 300.711C47.5017 303.111 47.8317 304.761 48.4917 305.661C49.2117 306.501 50.5017 306.921 52.3617 306.921C52.5417 306.921 52.6317 307.101 52.6317 307.461C52.6317 307.821 52.5417 308.001 52.3617 308.001C50.8017 308.001 49.5717 307.971 48.6717 307.911L43.2717 307.821L37.9617 307.911C37.0617 307.971 35.8317 308.001 34.2717 308.001C34.0917 308.001 34.0017 307.821 34.0017 307.461C34.0017 307.101 34.0917 306.921 34.2717 306.921C36.1317 306.921 37.3917 306.501 38.0517 305.661C38.7117 304.761 39.0417 303.111 39.0417 300.711L39.0417 283.791C39.0417 281.931 38.8017 280.581 38.3217 279.741C37.9017 278.841 37.2117 278.391 36.2517 278.391C35.2317 278.391 33.7917 278.811 31.9317 279.651L31.7517 279.651C31.5717 279.651 31.4217 279.501 31.3017 279.201C31.2417 278.901 31.2717 278.721 31.3917 278.661L43.9017 272.541C44.2617 272.421 44.4717 272.361 44.5317 272.361C45.1917 272.361 45.8217 273.021 46.4217 274.341C47.0217 275.601 47.3817 277.311 47.5017 279.471C51.5817 274.611 55.9617 272.181 60.6417 272.181C63.4617 272.181 65.7117 272.871 67.3917 274.251C69.0717 275.631 70.0917 277.611 70.4517 280.191C74.5917 274.851 79.1817 272.181 84.2217 272.181C87.4617 272.181 89.9217 273.111 91.6017 274.971C93.3417 276.831 94.2117 279.651 94.2117 283.431L94.2117 300.711C94.2117 303.111 94.5417 304.761 95.2017 305.661C95.9217 306.501 97.2117 306.921 99.0717 306.921ZM124.213 309.171C121.273 309.171 118.693 308.841 116.473 308.181L116.473 325.461C116.473 327.261 116.653 328.581 117.013 329.421C117.433 330.261 118.183 330.831 119.263 331.131C120.403 331.491 122.143 331.671 124.483 331.671C124.663 331.671 124.753 331.851 124.753 332.211C124.753 332.571 124.663 332.751 124.483 332.751C122.263 332.751 120.523 332.721 119.263 332.661L112.153 332.571L106.843 332.661C105.943 332.721 104.683 332.751 103.063 332.751C102.883 332.751 102.793 332.571 102.793 332.211C102.793 331.851 102.883 331.671 103.063 331.671C104.503 331.671 105.553 331.491 106.213 331.131C106.933 330.831 107.413 330.261 107.653 329.421C107.953 328.581 108.103 327.261 108.103 325.461L108.103 283.791C108.103 281.871 107.893 280.491 107.473 279.651C107.053 278.811 106.303 278.391 105.223 278.391C104.263 278.391 102.883 278.811 101.083 279.651L100.903 279.651C100.723 279.651 100.573 279.501 100.453 279.201C100.273 278.901 100.243 278.721 100.363 278.661L113.143 272.451C113.263 272.391 113.413 272.361 113.593 272.361C114.193 272.361 114.733 272.871 115.213 273.891C115.753 274.911 116.113 276.291 116.293 278.031C120.673 274.071 125.173 272.091 129.793 272.091C132.313 272.091 134.653 272.751 136.813 274.071C139.033 275.391 140.803 277.311 142.123 279.831C143.443 282.351 144.103 285.291 144.103 288.651C144.103 293.451 143.113 297.411 141.133 300.531C139.153 303.591 136.633 305.811 133.573 307.191C130.573 308.511 127.453 309.171 124.213 309.171ZM123.853 277.131C121.153 277.131 118.693 278.091 116.473 280.011L116.473 280.731L116.473 302.421C117.793 303.921 119.173 305.061 120.613 305.841C122.053 306.561 123.823 306.921 125.923 306.921C131.983 306.921 135.013 301.761 135.013 291.441C135.013 286.881 133.933 283.371 131.773 280.911C129.673 278.391 127.033 277.131 123.853 277.131ZM181.785 302.061C181.905 302.061 182.025 302.181 182.145 302.421C182.325 302.661 182.355 302.841 182.235 302.961C180.015 305.121 177.765 306.681 175.485 307.641C173.205 308.601 170.715 309.081 168.015 309.081C164.235 309.081 160.965 308.301 158.205 306.741C155.445 305.121 153.345 302.991 151.905 300.351C150.465 297.651 149.745 294.741 149.745 291.621C149.745 288.141 150.615 284.931 152.355 281.991C154.095 279.051 156.495 276.741 159.555 275.061C162.675 273.321 166.185 272.451 170.085 272.451C173.805 272.451 176.685 273.291 178.725 274.971C180.765 276.651 181.785 279.261 181.785 282.801C181.785 284.661 181.455 285.591 180.795 285.591L158.925 285.681C158.865 286.101 158.835 286.791 158.835 287.751C158.835 293.031 160.035 297.171 162.435 300.171C164.895 303.171 168.405 304.671 172.965 304.671C174.585 304.671 175.965 304.491 177.105 304.131C178.245 303.771 179.745 303.111 181.605 302.151L181.785 302.061ZM166.665 274.251C164.685 274.251 163.035 275.121 161.715 276.861C160.395 278.541 159.525 280.881 159.105 283.881L172.155 283.701C172.095 280.641 171.645 278.301 170.805 276.681C169.965 275.061 168.585 274.251 166.665 274.251ZM213.642 301.701C213.882 301.701 214.062 301.821 214.182 302.061C214.362 302.301 214.362 302.481 214.182 302.601C211.962 304.821 209.802 306.471 207.702 307.551C205.602 308.571 203.382 309.081 201.042 309.081C198.402 309.081 196.152 308.451 194.292 307.191C192.432 305.931 191.502 303.801 191.502 300.801L191.502 280.821C191.502 278.961 191.172 277.671 190.512 276.951C189.852 276.231 188.652 275.871 186.912 275.871C186.852 275.871 186.762 275.781 186.642 275.601C186.582 275.421 186.552 275.241 186.552 275.061C186.552 274.821 186.582 274.641 186.642 274.521C186.702 274.341 186.792 274.251 186.912 274.251C189.972 274.131 192.432 273.471 194.292 272.271C196.212 271.071 197.682 269.241 198.702 266.781C198.822 266.541 199.062 266.421 199.422 266.421C199.842 266.421 200.052 266.541 200.052 266.781L200.052 273.981C203.532 273.921 207.432 273.651 211.752 273.171C211.872 273.171 211.992 273.411 212.112 273.891C212.292 274.311 212.382 274.791 212.382 275.331C212.382 275.931 212.262 276.531 212.022 277.131C211.842 277.671 211.632 277.911 211.392 277.851C207.492 277.011 203.712 276.561 200.052 276.501L200.052 297.831C200.052 300.111 200.622 301.791 201.762 302.871C202.962 303.951 204.522 304.491 206.442 304.491C208.842 304.491 211.182 303.591 213.462 301.791L213.642 301.701ZM259.627 302.151C259.807 302.151 259.957 302.301 260.077 302.601C260.257 302.901 260.257 303.081 260.077 303.141L247.657 309.171C247.537 309.231 247.387 309.261 247.207 309.261C246.607 309.261 246.067 308.631 245.587 307.371C245.167 306.051 244.927 304.281 244.867 302.061C240.907 306.741 236.617 309.081 231.997 309.081C228.697 309.081 226.087 308.061 224.167 306.021C222.307 303.921 221.377 301.191 221.377 297.831L221.377 284.601C221.377 280.701 220.447 278.751 218.587 278.751C217.927 278.751 217.177 278.961 216.337 279.381L216.247 279.381C216.007 279.381 215.827 279.231 215.707 278.931C215.587 278.571 215.617 278.361 215.797 278.301L227.857 272.541L228.307 272.451C228.607 272.451 228.907 272.601 229.207 272.901C229.567 273.141 229.747 273.381 229.747 273.621L229.747 293.511C229.747 299.991 232.237 303.231 237.217 303.231C238.537 303.231 239.857 302.961 241.177 302.421C242.557 301.821 243.787 301.011 244.867 299.991L244.867 284.601C244.867 280.701 243.937 278.751 242.077 278.751C241.417 278.751 240.637 278.961 239.737 279.381L239.647 279.381C239.467 279.381 239.317 279.231 239.197 278.931C239.077 278.571 239.107 278.361 239.287 278.301L251.347 272.541C251.467 272.481 251.617 272.451 251.797 272.451C252.097 272.451 252.397 272.601 252.697 272.901C253.057 273.141 253.237 273.381 253.237 273.621L253.237 297.561C253.237 299.601 253.417 301.041 253.777 301.881C254.197 302.721 254.857 303.141 255.757 303.141C256.597 303.141 257.827 302.811 259.447 302.151L259.627 302.151ZM270.776 277.581C270.776 279.321 271.376 280.821 272.576 282.081C273.836 283.341 275.636 284.661 277.976 286.041C280.256 287.361 281.936 288.411 283.016 289.191C284.156 289.911 285.176 290.961 286.076 292.341C286.976 293.661 287.426 295.281 287.426 297.201C287.426 299.241 286.916 301.161 285.896 302.961C284.876 304.761 283.346 306.231 281.306 307.371C279.266 308.451 276.836 308.991 274.016 308.991C270.716 308.991 267.596 308.181 264.656 306.561C264.296 306.201 264.116 305.841 264.116 305.481L263.936 296.571C263.936 296.391 264.086 296.301 264.386 296.301C264.746 296.241 264.956 296.271 265.016 296.391C265.976 299.391 267.566 301.941 269.786 304.041C272.006 306.141 274.256 307.191 276.536 307.191C277.796 307.191 278.786 306.801 279.506 306.021C280.286 305.241 280.676 304.101 280.676 302.601C280.676 300.381 280.046 298.641 278.786 297.381C277.526 296.061 275.666 294.711 273.206 293.331C271.106 292.191 269.516 291.261 268.436 290.541C267.356 289.821 266.396 288.801 265.556 287.481C264.716 286.161 264.296 284.541 264.296 282.621C264.296 279.081 265.556 276.501 268.076 274.881C270.596 273.201 273.686 272.361 277.346 272.361C278.726 272.361 279.956 272.451 281.036 272.631C282.176 272.811 283.436 273.171 284.816 273.711C285.356 273.891 285.626 274.221 285.626 274.701C285.626 276.201 285.596 277.371 285.536 278.211L285.446 282.711C285.446 282.891 285.266 282.981 284.906 282.981C284.546 282.981 284.366 282.891 284.366 282.711C284.366 281.571 283.886 280.341 282.926 279.021C281.966 277.641 280.706 276.471 279.146 275.511C277.646 274.551 276.086 274.071 274.466 274.071C272.006 274.071 270.776 275.241 270.776 277.581ZM299.929 308.991C298.249 308.991 296.899 308.511 295.879 307.551C294.919 306.531 294.439 305.181 294.439 303.501C294.439 301.941 294.919 300.681 295.879 299.721C296.899 298.761 298.249 298.281 299.929 298.281C301.609 298.281 302.899 298.761 303.799 299.721C304.759 300.621 305.239 301.881 305.239 303.501C305.239 305.241 304.759 306.591 303.799 307.551C302.899 308.511 301.609 308.991 299.929 308.991Z" fill="#4B7790"/>
</svg>
